<?xml version="1.0" encoding="iso-8859-1"?>
<!-- Generator: Adobe Illustrator 16.0.0, SVG Export Plug-In . SVG Version: 6.00 Build 0)  -->
<!DOCTYPE svg PUBLIC "-//W3C//DTD SVG 1.1//EN" "http://www.w3.org/Graphics/SVG/1.1/DTD/svg11.dtd">
<svg version="1.1" id="Capa_1" xmlns="http://www.w3.org/2000/svg" xmlns:xlink="http://www.w3.org/1999/xlink" x="0px" y="0px"
	 width="863.5px" height="863.5px" viewBox="0 0 863.5 863.5" style="enable-background:new 0 0 863.5 863.5;" xml:space="preserve"
	>
<g>
	<path d="M76.851,823.15c53.8,53.8,141.1,53.8,194.9,0l551.4-551.4c53.8-53.8,53.8-141.1,0-194.9l-36.5-36.5
		c-53.801-53.8-141.101-53.8-194.9,0L40.351,591.75c-53.8,53.8-53.8,141.1,0,194.9L76.851,823.15z M301.151,721.85
		c-9,9-23.7,9-32.7,0s-9-23.699,0-32.699s23.7-9,32.7,0C310.25,698.15,310.25,712.75,301.151,721.85z M364.151,658.85
		c-9,9-23.7,9-32.7,0s-9-23.699,0-32.699s23.7-9,32.7,0C373.25,635.15,373.25,649.85,364.151,658.85z M752.05,205.451
		c9-9,23.7-9,32.7,0s9,23.7,0,32.7s-23.7,9-32.7,0S743.05,214.55,752.05,205.451z M721.85,301.15c-9,9-23.699,9-32.699,0
		s-9-23.7,0-32.7s23.699-9,32.699,0S730.85,292.15,721.85,301.15z M688.65,142.05c9-9,23.699-9,32.699,0s9,23.7,0,32.7
		s-23.699,9-32.699,0S679.65,151.15,688.65,142.05z M658.85,364.151c-9,9-23.699,9-32.699,0s-9-23.7,0-32.7s23.699-9,32.699,0
		C667.95,340.451,667.95,355.151,658.85,364.151z M658.45,237.851c-9,9-23.7,9-32.7,0s-9-23.7,0-32.7s23.7-9,32.7,0
		S667.45,228.75,658.45,237.851z M625.25,78.65c9-9,23.7-9,32.7,0s9,23.7,0,32.7s-23.7,9-32.7,0S616.25,87.75,625.25,78.65z
		 M562.35,141.65c9-9,23.7-9,32.7,0s9,23.7,0,32.7s-23.7,9-32.7,0C553.25,165.351,553.25,150.75,562.35,141.65z M595.45,300.75
		c-9,9-23.7,9-32.7,0s-9-23.7,0-32.7s23.7-9,32.7,0C604.55,277.05,604.55,291.75,595.45,300.75z M499.35,204.65c9-9,23.7-9,32.7,0
		s9,23.7,0,32.7s-23.7,9-32.7,0C490.25,228.351,490.25,213.65,499.35,204.65z M275.951,428.05l152.2-152.2
		c11.699-11.7,30.699-11.7,42.399,0l117.101,117.1c11.699,11.7,11.699,30.7,0,42.399l-152.2,152.2c-11.7,11.7-30.7,11.7-42.4,0
		l-117.1-117.1C264.151,458.75,264.151,439.75,275.951,428.05z M268.05,562.75c9-9,23.7-9,32.7,0s9,23.7,0,32.7s-23.7,9-32.7,0
		C258.951,586.45,258.951,571.75,268.05,562.75z M238.25,784.85c-9,9-23.7,9-32.7,0s-9-23.699,0-32.699s23.7-9,32.7,0
		S247.25,775.75,238.25,784.85z M237.851,658.45c-9,9-23.7,9-32.7,0s-9-23.7,0-32.7s23.7-9,32.7,0
		C246.85,634.75,246.85,649.35,237.851,658.45z M204.65,499.35c9-9,23.7-9,32.7,0c9,9,9,23.7,0,32.7c-9,9-23.7,9-32.7,0
		C195.55,523.05,195.55,508.35,204.65,499.35z M174.851,721.45c-9,9-23.7,9-32.7,0s-9-23.7,0-32.7s23.7-9,32.7,0
		S183.851,712.35,174.851,721.45z M141.65,562.35c9-9,23.7-9,32.7,0s9,23.7,0,32.7s-23.7,9-32.7,0S132.65,571.35,141.65,562.35z
		 M78.65,625.25c9-9,23.7-9,32.7,0s9,23.7,0,32.7s-23.7,9-32.7,0S69.65,634.35,78.65,625.25z"/>
</g>
<g>
</g>
<g>
</g>
<g>
</g>
<g>
</g>
<g>
</g>
<g>
</g>
<g>
</g>
<g>
</g>
<g>
</g>
<g>
</g>
<g>
</g>
<g>
</g>
<g>
</g>
<g>
</g>
<g>
</g>
</svg>
