<?xml version="1.0" encoding="iso-8859-1"?>
<!-- Generator: Adobe Illustrator 16.0.0, SVG Export Plug-In . SVG Version: 6.00 Build 0)  -->
<!DOCTYPE svg PUBLIC "-//W3C//DTD SVG 1.1//EN" "http://www.w3.org/Graphics/SVG/1.1/DTD/svg11.dtd">
<svg version="1.1" id="Capa_1" xmlns="http://www.w3.org/2000/svg" xmlns:xlink="http://www.w3.org/1999/xlink" x="0px" y="0px"
	 width="493.91px" height="493.91px" viewBox="0 0 493.91 493.91" style="enable-background:new 0 0 493.91 493.91;"
	 xml:space="preserve">
<g>
	<g>
		<g id="Icons_24_">
			<path d="M408.76,161.805C408.76,72.583,336.169,0,246.962,0C157.74,0,85.15,72.583,85.15,161.805
				c0,36.556,11.987,71.07,34.633,99.811c15.846,20.099,31.466,43.107,44.517,64.964l-0.066,103.922
				c0,34.964,28.438,63.408,63.398,63.408h38.645c34.961,0,63.398-28.444,63.398-63.408l-0.123-104.066
				c13.178-22.062,28.498-44.43,44.573-64.812C396.773,232.875,408.76,198.36,408.76,161.805z M296.711,337.532v63.437h-99.524
				v-63.437H296.711L296.711,337.532z M266.277,460.418h-38.645c-15.144,0-27.701-11.323-29.648-25.96h97.941
				C293.994,449.095,281.436,460.418,266.277,460.418z M303.957,304.043h-40.243V168.778c0-9.247-7.511-16.746-16.75-16.746
				c-9.254,0-16.743,7.499-16.743,16.746v135.265h-40.265c-13.176-21.627-28.223-43.304-43.853-63.165
				c-17.96-22.771-27.458-50.121-27.458-79.073c0-70.751,57.558-128.315,128.319-128.315c70.75,0,128.305,57.564,128.305,128.315
				c0,28.959-9.498,56.302-27.438,79.084C331.914,261.059,317.182,282.26,303.957,304.043z"/>
		</g>
	</g>
</g>
<g>
</g>
<g>
</g>
<g>
</g>
<g>
</g>
<g>
</g>
<g>
</g>
<g>
</g>
<g>
</g>
<g>
</g>
<g>
</g>
<g>
</g>
<g>
</g>
<g>
</g>
<g>
</g>
<g>
</g>
</svg>
