<?xml version="1.0" encoding="iso-8859-1"?>
<!-- Generator: Adobe Illustrator 16.0.0, SVG Export Plug-In . SVG Version: 6.00 Build 0)  -->
<!DOCTYPE svg PUBLIC "-//W3C//DTD SVG 1.1//EN" "http://www.w3.org/Graphics/SVG/1.1/DTD/svg11.dtd">
<svg version="1.1" id="Capa_1" xmlns="http://www.w3.org/2000/svg" xmlns:xlink="http://www.w3.org/1999/xlink" x="0px" y="0px"
	 width="31.783px" height="31.783px" viewBox="0 0 31.783 31.783" style="enable-background:new 0 0 31.783 31.783;"
	 xml:space="preserve">
<g>
	<g>
		<path d="M14.138,8.004c0.055,0.015,0.113,0.018,0.17,0.004l1.774-0.389c0.238,0.137,0.46,0.231,0.689,0.293
			c1.686,0.464,3.431-0.531,3.894-2.218c0.462-1.684-0.532-3.429-2.217-3.891c-1.685-0.464-3.431,0.529-3.893,2.214
			c-0.167,0.605-0.146,1.239,0.058,1.843l-0.709,1.662c-0.052,0.121-0.032,0.264,0.053,0.366
			C14.005,7.946,14.068,7.984,14.138,8.004z M15.326,5.742c-0.194-0.501-0.223-1.032-0.085-1.535
			c0.358-1.307,1.713-2.078,3.019-1.72c1.307,0.36,2.077,1.713,1.719,3.02c-0.357,1.309-1.713,2.078-3.02,1.72
			c-0.201-0.055-0.402-0.147-0.632-0.288c-0.079-0.05-0.173-0.064-0.263-0.045L14.83,7.166l0.492-1.155
			C15.359,5.923,15.362,5.83,15.326,5.742z"/>
		<path d="M16.506,4.484l2.275,0.064c0.197,0.006,0.359-0.151,0.365-0.349c0.004-0.195-0.148-0.364-0.344-0.37l-2.278-0.065
			c-0.194-0.004-0.359,0.155-0.365,0.352C16.156,4.312,16.31,4.478,16.506,4.484z"/>
		<path d="M16.473,5.682l2.275,0.065c0.196,0.006,0.357-0.136,0.364-0.332c0.005-0.198-0.149-0.351-0.345-0.355l-2.275-0.065
			c-0.197-0.006-0.36,0.138-0.365,0.335C16.12,5.526,16.276,5.678,16.473,5.682z"/>
		<circle cx="9.15" cy="5.406" r="2.836"/>
		<path d="M14.353,21.537c0.01-2.094-1.587-3.064-2.663-3.209l-0.207-0.014c-0.606,0.002-1.327,0.004-2.053,0.006
			c-0.077-1.561-0.179-3.963-0.173-4.201c0.387,0.181,0.815,0.324,1.284,0.411c1.133,0.205,2.289,0.04,3.461-0.497
			c0.638-0.291,2.458-1.654,2.871-2.029c0.457-0.435,0.609-0.822,0.627-1.217c-0.044-0.633-0.4-1.158-0.4-1.158
			c-0.625-0.937-1.715-0.717-2.358-0.086c-0.959,0.933-2.361,2-3.6,1.783c-0.524-0.092-0.97-0.404-1.315-0.745
			c-0.12-0.885-0.671-1.69-1.539-2.098C6.928,7.851,5.462,8.517,4.678,9.793c-1.081,1.756-1.127,6.398-0.764,9.814
			c0.165,0.954,0.18,1.771,1.477,1.771c0.47,0.024,4.583,0.014,5.877,0.012c0.004,0.021,0.013,0.063,0.011,0.137
			c-0.005,1.184,0.002,5.52,0.005,7.516c0.001,0.566,0.46,1.053,1.028,1.053h1.018c0.273,0,0.534-0.134,0.727-0.328
			s0.301-0.468,0.301-0.741C14.355,27.03,14.349,22.719,14.353,21.537z"/>
		<path d="M3.082,8.521c0-0.851-0.691-1.537-1.54-1.537C0.692,6.985,0,7.672,0,8.521v15.37c0,0.794,0.613,1.434,1.384,1.516
			c0.002,0.004,0.015-0.004,0.016-0.004h0.61v3.613c0,0.566,0.44,1.024,1.004,1.024c0.566,0,1.006-0.459,1.006-1.024v-3.613h3.216
			v3.613c0,0.566,0.439,1.024,1.006,1.024c0.566,0,1.004-0.459,1.004-1.024v-3.613h0.938v-3.082H3.082V8.521z"/>
		<path d="M30.76,18.746c-0.236-1.21-1.007-2.229-2.08-2.786v-1.011h1.477v-6.72l-5.629-2.001V5.301h-2.012v10.185h2.012V14.95h1.07
			v0.739c-1.34,0.44-2.396,1.674-2.678,3.013h-6.502c-0.567,0-1.026,0.508-1.026,1.072c0,0.566,0.459,1.071,1.026,1.071h2.077v9.247
			h11.258v-9.245h1.011c0.566,0,1.02-0.482,1.02-1.05C31.781,19.235,31.321,18.753,30.76,18.746z"/>
	</g>
</g>
<g>
</g>
<g>
</g>
<g>
</g>
<g>
</g>
<g>
</g>
<g>
</g>
<g>
</g>
<g>
</g>
<g>
</g>
<g>
</g>
<g>
</g>
<g>
</g>
<g>
</g>
<g>
</g>
<g>
</g>
</svg>
